<svg width="19" height="25" viewBox="0 0 19 25" fill="none" xmlns="http://www.w3.org/2000/svg">
<path d="M18.0502 22.6493L17.692 20.9776C16.9539 17.5332 15.6016 14.2964 13.672 11.3529V8.64058C14.5608 7.97178 15.1368 6.9084 15.1368 5.71289V4.24805C15.1368 3.84355 14.8089 3.51562 14.4044 3.51562H13.672V0.732422C13.672 0.32793 13.344 0 12.9395 0C12.5351 0 12.2071 0.32793 12.2071 0.732422V3.52339C10.8917 3.6001 9.7392 4.29209 9.03329 5.31528C8.32738 4.29209 7.17489 3.6001 5.85946 3.52339V0.732422C5.85946 0.32793 5.53153 0 5.12704 0C4.72255 0 4.39462 0.32793 4.39462 0.732422V3.51562H3.6622C3.25771 3.51562 2.92978 3.84355 2.92978 4.24805V5.71289C2.92978 6.9084 3.50575 7.97178 4.39462 8.64058V11.3529C2.46503 14.2964 1.11264 17.5332 0.374551 20.9776L0.0163477 22.6493C-0.0602148 23.0066 0.138369 23.3658 0.481826 23.4909C3.2307 24.4923 6.1078 25 9.03329 25C11.9588 25 14.8359 24.4923 17.5848 23.4909C17.9282 23.3658 18.1268 23.0067 18.0502 22.6493ZM12.4513 4.98047H13.672V5.71289C13.672 6.92446 12.6863 7.91016 11.4747 7.91016H9.76572V7.66602C9.76572 6.1852 10.9705 4.98047 12.4513 4.98047ZM4.39462 4.98047H5.61532C7.09613 4.98047 8.30087 6.1852 8.30087 7.66602V7.91016H6.59189C5.38031 7.91016 4.39462 6.92446 4.39462 5.71289V4.98047ZM6.59189 9.375H11.4747C11.7255 9.375 11.9704 9.34956 12.2071 9.30132V10.8398H5.85946V9.30132C6.09618 9.34956 6.3411 9.375 6.59189 9.375ZM9.03329 23.5352C6.49179 23.5352 3.98891 23.128 1.58402 22.3244L1.80683 21.2846C2.49447 18.0757 3.74384 15.0566 5.52231 12.3047L12.5442 12.3047C14.3227 15.0566 15.5721 18.0757 16.2597 21.2845L16.4825 22.3244C14.0777 23.128 11.5748 23.5352 9.03329 23.5352Z" fill="black"/>
</svg>
