<svg width="61" height="62" viewBox="0 0 61 62" fill="none" xmlns="http://www.w3.org/2000/svg">
<path d="M56.5446 40.6477L50.6491 36.4552C51.6392 32.8146 51.6336 28.9748 50.6328 25.337L56.5478 21.1965L51.8256 13.026L45.2476 16.0355C42.5888 13.3576 39.2597 11.4427 35.6081 10.491L34.9808 3.29875H25.5363L24.9091 10.491C21.2582 11.444 17.9302 13.36 15.2728 16.0387L8.69158 13.0293L3.97258 21.1998L9.88758 25.3402C8.88633 28.9767 8.87959 32.8153 9.86808 36.4552L3.97258 40.6477L8.69158 48.7792L15.2728 45.7665C17.9306 48.444 21.2585 50.3589 24.9091 51.311L25.5363 58.5033H34.9808L35.6081 51.311C39.2586 50.3587 42.5865 48.4439 45.2443 45.7665L51.8256 48.7792L56.5478 40.651L56.5446 40.6477ZM36.7748 9.1157e-07C37.1932 -0.000441908 37.5956 0.160464 37.8982 0.449227C38.2009 0.737989 38.3806 1.13236 38.3998 1.55025L38.9783 8.164C41.3808 9.07955 43.6221 10.3719 45.6181 11.9925L51.6306 9.18775C52.0019 8.99668 52.4326 8.95592 52.8332 9.07392C53.2338 9.19193 53.5736 9.45963 53.7821 9.8215L60.2983 21.099C60.5077 21.4605 60.5698 21.8887 60.4718 22.2948C60.3737 22.7009 60.1231 23.0536 59.7718 23.2797L54.3313 27.0887C54.7473 29.6822 54.7343 32.266 54.3346 34.7555L59.7718 38.558C60.1239 38.7842 60.3752 39.1375 60.4733 39.5444C60.5714 39.9512 60.5087 40.3802 60.2983 40.742L53.7821 51.9772C53.5736 52.3391 53.2338 52.6068 52.8332 52.7248C52.4326 52.8428 52.0019 52.8021 51.6306 52.611L45.6181 49.8062C43.6616 51.3987 41.4321 52.6987 38.9783 53.638L38.3998 60.2518C38.3798 60.6691 38.1998 61.0626 37.8972 61.3507C37.5946 61.6388 37.1926 61.7992 36.7748 61.7987H23.7423C23.3245 61.7992 22.9226 61.6388 22.62 61.3507C22.3174 61.0626 22.1374 60.6691 22.1173 60.2518L21.5388 53.638C19.1362 52.7213 16.8949 51.4279 14.8991 49.8062L8.88658 52.611C8.51529 52.8033 8.08414 52.8451 7.68282 52.7277C7.2815 52.6103 6.94089 52.3426 6.73183 51.9805L0.218834 40.7388C0.00946238 40.3773 -0.0526508 39.949 0.0453891 39.5429C0.143429 39.1369 0.39409 38.7841 0.745334 38.558L6.18258 34.7523C5.77541 32.2129 5.77541 29.6249 6.18258 27.0855L0.748584 23.2797C0.398201 23.0537 0.148138 22.7015 0.0501375 22.2962C-0.0478634 21.8909 0.0136977 21.4634 0.222084 21.1022L6.72859 9.8215C6.9371 9.4588 7.27748 9.19049 7.67885 9.07244C8.08022 8.95439 8.51165 8.99569 8.88333 9.18775L14.8958 11.9925C16.8918 10.3719 19.1331 9.07955 21.5356 8.164L22.1141 1.55025C22.1333 1.13236 22.313 0.737989 22.6157 0.449227C22.9184 0.160464 23.3208 -0.000441908 23.7391 9.1157e-07H36.7716H36.7748ZM30.2586 19.5487C33.2754 19.5487 36.1687 20.7472 38.3019 22.8804C40.4352 25.0136 41.6336 27.9069 41.6336 30.9237C41.6336 33.9406 40.4352 36.8339 38.3019 38.9671C36.1687 41.1003 33.2754 42.2987 30.2586 42.2987C27.2417 42.2987 24.3485 41.1003 22.2152 38.9671C20.082 36.8339 18.8836 33.9406 18.8836 30.9237C18.8836 27.9069 20.082 25.0136 22.2152 22.8804C24.3485 20.7472 27.2417 19.5487 30.2586 19.5487ZM30.2586 22.7987C28.1037 22.7987 26.0371 23.6548 24.5133 25.1785C22.9896 26.7022 22.1336 28.7689 22.1336 30.9237C22.1336 33.0786 22.9896 35.1453 24.5133 36.669C26.0371 38.1927 28.1037 39.0487 30.2586 39.0487C32.4135 39.0487 34.4801 38.1927 36.0038 36.669C37.5276 35.1453 38.3836 33.0786 38.3836 30.9237C38.3836 28.7689 37.5276 26.7022 36.0038 25.1785C34.4801 23.6548 32.4135 22.7987 30.2586 22.7987Z" fill="black"/>
</svg>
