<svg width="102" height="12" viewBox="0 0 102 12" fill="none" xmlns="http://www.w3.org/2000/svg">
<path d="M5.376 0.144002H6.736L8.24 4.096L9.76 0.144002H11.12L9.152 5.088L11.104 9.776L14.944 0.0800018H16.512L11.76 11.44H10.512L8.256 6.08L5.984 11.44H4.736L2.81632e-06 0.0800018H1.552L5.408 9.776L7.344 5.088L5.376 0.144002ZM23.7834 11.52C22.9834 11.52 22.258 11.36 21.6074 11.04C20.9567 10.72 20.3914 10.288 19.9114 9.744C19.442 9.18934 19.0794 8.57067 18.8234 7.888C18.5674 7.19467 18.4394 6.48534 18.4394 5.76C18.4394 5.00267 18.5727 4.28267 18.8394 3.6C19.1167 2.90667 19.4954 2.29334 19.9754 1.76C20.466 1.216 21.0367 0.789335 21.6874 0.480001C22.338 0.160002 23.0474 1.90735e-06 23.8154 1.90735e-06C24.6154 1.90735e-06 25.3407 0.165335 25.9914 0.496002C26.642 0.826668 27.202 1.26934 27.6714 1.824C28.1407 2.37867 28.5034 2.99734 28.7594 3.68C29.0154 4.36267 29.1434 5.06134 29.1434 5.776C29.1434 6.53334 29.01 7.25867 28.7434 7.952C28.4767 8.63467 28.098 9.248 27.6074 9.792C27.1274 10.3253 26.562 10.7467 25.9114 11.056C25.2607 11.3653 24.5514 11.52 23.7834 11.52ZM19.8954 5.76C19.8954 6.336 19.986 6.896 20.1674 7.44C20.3594 7.97334 20.626 8.448 20.9674 8.864C21.3087 9.28 21.7194 9.61067 22.1994 9.856C22.6794 10.1013 23.2127 10.224 23.7994 10.224C24.4074 10.224 24.9514 10.096 25.4314 9.84C25.9114 9.584 26.3167 9.24267 26.6474 8.816C26.9887 8.38934 27.2447 7.90934 27.4154 7.376C27.5967 6.84267 27.6874 6.304 27.6874 5.76C27.6874 5.184 27.5914 4.62934 27.3994 4.096C27.218 3.56267 26.9514 3.088 26.5994 2.672C26.258 2.24534 25.8474 1.91467 25.3674 1.68C24.898 1.43467 24.3754 1.312 23.7994 1.312C23.1914 1.312 22.6474 1.44 22.1674 1.696C21.6874 1.94134 21.2767 2.27734 20.9354 2.704C20.6047 3.13067 20.3487 3.61067 20.1674 4.144C19.986 4.66667 19.8954 5.20534 19.8954 5.76ZM42.5681 11.44V2.768L38.8241 9.44H37.9441L34.1841 2.768V11.44H32.7441V0.0800018H34.2641L38.3761 7.456L42.5041 0.0800018H44.0081V11.44H42.5681ZM51.7845 0.0800018H53.0005L57.6405 11.44H56.1045L54.7605 8.112H49.9925L48.6645 11.44H47.1285L51.7845 0.0800018ZM54.4405 6.992L52.3925 1.744L50.2805 6.992H54.4405ZM59.9086 10.32L67.2366 1.36H60.0526V0.0800018H68.9166V1.2L61.7166 10.16H68.9166V11.44H59.9086V10.32ZM72.4504 11.44V0.0800018H73.8904V11.44H72.4504ZM79.6466 2.736V11.44H78.2066V0.0800018H79.4226L86.3666 8.96V0.0960016H87.8066V11.44H86.4946L79.6466 2.736ZM96.6791 11.52C95.9325 11.52 95.2338 11.36 94.5831 11.04C93.9431 10.7093 93.3831 10.272 92.9031 9.728C92.4231 9.17334 92.0498 8.55467 91.7831 7.872C91.5165 7.17867 91.3831 6.464 91.3831 5.728C91.3831 4.96 91.5165 4.23467 91.7831 3.552C92.0498 2.85867 92.4178 2.24534 92.8871 1.712C93.3671 1.17867 93.9271 0.762668 94.5671 0.464002C95.2178 0.154668 95.9218 1.90735e-06 96.6791 1.90735e-06C97.7778 1.90735e-06 98.6845 0.229335 99.3991 0.688002C100.114 1.14667 100.652 1.744 101.015 2.48L99.9111 3.248C99.5805 2.58667 99.1271 2.096 98.5511 1.776C97.9751 1.456 97.3405 1.296 96.6471 1.296C96.0711 1.296 95.5485 1.41867 95.0791 1.664C94.6098 1.90934 94.2045 2.24534 93.8631 2.672C93.5325 3.088 93.2765 3.56267 93.0951 4.096C92.9245 4.62934 92.8391 5.184 92.8391 5.76C92.8391 6.57067 93.0098 7.31734 93.3511 8C93.7031 8.672 94.1778 9.21067 94.7751 9.616C95.3725 10.0213 96.0445 10.224 96.7911 10.224C97.3991 10.224 97.9805 10.08 98.5351 9.792C99.1005 9.49334 99.6338 9.04 100.135 8.432V6.864H97.6871V5.776H101.351V11.44H100.135V9.904C99.1538 10.9813 98.0018 11.52 96.6791 11.52Z" fill="black"/>
</svg>
