<svg width="24" height="24" viewBox="0 0 24 24" fill="none" xmlns="http://www.w3.org/2000/svg">
<path d="M23.8454 7.9956C23.7281 7.88036 23.5642 7.82572 23.4012 7.84755H17.0343V5.03426C17.0343 2.2539 14.7804 0 12.0001 0C9.21971 0 6.96582 2.2539 6.96582 5.03426V7.84755H0.598861C0.421164 7.84755 0.243523 7.84755 0.154646 7.9956C0.0352739 8.11032 -0.0201042 8.2764 0.00659291 8.43981L2.22761 20.5813C2.53789 22.275 4.00034 23.5144 5.72199 23.5426H18.278C20.0046 23.5002 21.464 22.251 21.7724 20.5517L23.9934 8.43981C24.0201 8.2764 23.9648 8.11032 23.8454 7.9956ZM8.1503 5.03426C8.1503 2.90812 9.87388 1.18454 12 1.18454C14.1261 1.18454 15.8497 2.90812 15.8497 5.03426V7.84755H8.1503V5.03426ZM20.5879 20.4036C20.3884 21.526 19.4179 22.3472 18.278 22.3581H5.72199C4.58212 22.3472 3.61161 21.526 3.41215 20.4036L1.30959 9.03208H22.6904L20.5879 20.4036Z" fill="black"/>
<path d="M16.4421 14.8067C16.7692 14.8067 17.0343 14.5415 17.0343 14.2144V12.4376C17.0343 12.1105 16.7692 11.8453 16.4421 11.8453C16.1149 11.8453 15.8498 12.1105 15.8498 12.4376V14.2144C15.8497 14.5415 16.1149 14.8067 16.4421 14.8067Z" fill="black"/>
<path d="M7.55803 14.8067C7.88514 14.8067 8.1503 14.5415 8.1503 14.2144V12.4376C8.1503 12.1105 7.88514 11.8453 7.55803 11.8453C7.23092 11.8453 6.96576 12.1105 6.96576 12.4376V14.2144C6.96576 14.5415 7.23092 14.8067 7.55803 14.8067Z" fill="black"/>
</svg>
